<svg xmlns="http://www.w3.org/2000/svg" viewBox="0 0 640 800">
  <defs>
    <linearGradient id="bg" x1="0%" y1="0%" x2="100%" y2="100%">
      <stop offset="0%" stop-color="#0f172a"/>
      <stop offset="100%" stop-color="#2563eb"/>
    </linearGradient>
  </defs>
  <rect width="640" height="800" rx="42" fill="url(#bg)"/>
  <circle cx="110" cy="118" r="106" fill="#ffffff10"/>
  <circle cx="528" cy="174" r="90" fill="#ffffff10"/>
  <circle cx="320" cy="300" r="124" fill="#b67a55"/>
  <path d="M204 270c20-86 198-120 238-8v74H208l-4-66Z" fill="#111827"/>
  <path d="M152 742c26-136 84-204 154-236 62-28 148-10 214 48 50 44 78 104 88 188H152Z" fill="#1e293b"/>
  <path d="M260 468c14 24 38 38 66 38s52-14 70-38v72c0 30-28 48-68 48s-68-18-68-48v-72Z" fill="#a96e4c"/>
  <path d="M184 596c48-16 96-24 144-24 46 0 88 8 126 24l30 146H154l30-146Z" fill="#60a5fa"/>
  <path d="M230 628h188" stroke="#eff6ff" stroke-width="12" stroke-linecap="round"/>
  <circle cx="474" cy="664" r="34" fill="#ffffff20"/>
  <path d="M474 646v36M456 664h36" stroke="#fff" stroke-width="10" stroke-linecap="round"/>
</svg>
