<svg xmlns="http://www.w3.org/2000/svg" viewBox="0 0 640 800">
  <defs>
    <linearGradient id="bg" x1="0%" y1="0%" x2="100%" y2="100%">
      <stop offset="0%" stop-color="#1e293b"/>
      <stop offset="100%" stop-color="#0891b2"/>
    </linearGradient>
  </defs>
  <rect width="640" height="800" rx="42" fill="url(#bg)"/>
  <circle cx="114" cy="112" r="108" fill="#ffffff10"/>
  <circle cx="520" cy="180" r="92" fill="#ffffff12"/>
  <circle cx="320" cy="306" r="122" fill="#e0b188"/>
  <path d="M208 286c18-80 194-124 230-12l-6 60H214l-6-48Z" fill="#5b3a29"/>
  <path d="M166 742c18-124 74-198 152-232 66-30 154-8 214 52 42 42 66 98 70 180H166Z" fill="#0f172a"/>
  <path d="M258 472c16 20 38 34 66 34s52-14 68-34v72c0 28-26 46-68 46s-66-18-66-46v-72Z" fill="#d4a276"/>
  <path d="M188 600c46-18 92-26 138-26 48 0 90 8 126 26l28 142H160l28-142Z" fill="#38bdf8"/>
  <path d="M262 622h126" stroke="#eff6ff" stroke-width="12" stroke-linecap="round"/>
  <circle cx="468" cy="664" r="34" fill="#ffffff20"/>
  <path d="m454 664 10 10 20-24" stroke="#fff" stroke-width="10" stroke-linecap="round" stroke-linejoin="round"/>
</svg>
